<svg width="36" height="42" viewBox="0 0 36 42" fill="none" xmlns="http://www.w3.org/2000/svg">
<path fill-rule="evenodd" clip-rule="evenodd" d="M36 18C36 8.05888 27.9411 0 18 0C8.05888 0 0 8.05888 0 18C0 20.4609 0.493863 22.8065 1.38789 24.9431C5.096 35.0674 18.0946 42 18.0946 42C18.0946 42 34.0619 33.4841 35.651 21.5453C35.8799 20.3991 36 19.2136 36 18Z" fill="white"/>
<path fill-rule="evenodd" clip-rule="evenodd" d="M33.1293 21.2442L33.113 21.3269L33.102 21.4105C32.4365 26.4654 28.6652 31.0967 24.5955 34.6523C22.6125 36.3848 20.6679 37.7671 19.2171 38.7164C18.7957 38.9922 18.4176 39.2302 18.0946 39.4286C17.8799 39.2968 17.6409 39.1474 17.381 38.9811C16.167 38.2041 14.5103 37.0657 12.7474 35.6264C9.15465 32.6931 5.41532 28.7464 3.80246 24.2945L3.78246 24.2393L3.76001 24.185C2.9952 22.3372 2.57143 20.3066 2.57143 18.1693C2.57143 9.55482 9.47904 2.57143 18 2.57143C26.521 2.57143 33.4286 9.55482 33.4286 18.1693C33.4286 19.2242 33.3253 20.2522 33.1293 21.2442Z" fill="url(#paint0_linear_106_381)"/>
<path d="M24.8571 18C24.8571 14.2129 21.7871 11.1429 18 11.1429C14.2129 11.1429 11.1429 14.2129 11.1429 18C11.1429 21.7871 14.2129 24.8571 18 24.8571C21.7871 24.8571 24.8571 21.7871 24.8571 18Z" fill="white"/>
<defs>
<linearGradient id="paint0_linear_106_381" x1="33.4286" y1="7.63762" x2="2.57143" y2="34.3624" gradientUnits="userSpaceOnUse">
<stop stop-color="#FBCB50"/>
<stop offset="0.43" stop-color="#D87297"/>
<stop offset="1" stop-color="#E36658"/>
</linearGradient>
</defs>
</svg>
